# xmcd
#
# Track frame offsets:
#	150
#	34525
#	53172
#	75802
#	83892
#	101127
#	132685
#	149240
#
# Disc length: 2202 seconds
#
# Revision: 1
# Processed by: cddbd v1.5PL3 Copyright (c) Steve Scherf et al.
# Submitted via: EasyCDDAExtractor 6.5.0.1
#
DISCID=6a089808
DTITLE=Boston Dawn - Something Serious
DYEAR=1900
DGENRE=
TTITLE0=Something Serious(Crash Club Mix)
TTITLE1=Something Serious(House Party Mix)
TTITLE2=Something Serious(Power Radio Mix)
TTITLE3=Something Serious(Acapella Mix)
TTITLE4=Something Serious(CHR Mix)
TTITLE5=Something Serious(House Party Club Mix)
TTITLE6=Something Serious(Radio Party Mix)
TTITLE7=Something Serious(Party Bonus Beats)
EXTD=
EXTT0=
EXTT1=
EXTT2=
EXTT3=
EXTT4=
EXTT5=
EXTT6=
EXTT7=
PLAYORDER=
